Coordinates
version=1
nRows=6
nColumns=36
inDegrees=yes

Units are S.I. units (second, meters, Newtons, ...)
If the header above contains a line with 'inDegrees', this indicates whether rotational values are in degrees (yes) or radians (no).

endheader
time	pelvis_tilt	pelvis_list	pelvis_rotation	pelvis_tx	pelvis_ty	pelvis_tz	hip_flexion_r	hip_adduction_r	hip_rotation_r	knee_angle_r	knee_angle_r_beta	ankle_angle_r	subtalar_angle_r	mtp_angle_r	hip_flexion_l	hip_adduction_l	hip_rotation_l	knee_angle_l	knee_angle_l_beta	ankle_angle_l	subtalar_angle_l	mtp_angle_l	lumbar_extension	lumbar_bending	lumbar_rotation	arm_flex_r	arm_add_r	arm_rot_r	elbow_flex_r	pro_sup_r	arm_flex_l	arm_add_l	arm_rot_l	elbow_flex_l	pro_sup_l
      0.00000000	     -2.82128858	      2.44044681	      0.87370418	     -0.11879486	      1.00159718	     -0.36300239	     27.03882962	     -2.33734196	     -4.43647034	      6.89389069	      0.12032109	     -3.11735467	     -4.72688320	     -4.50072479	    -15.50978857	      3.29784579	     -5.35982574	      8.62413607	      0.15051957	     13.22646052	     10.24291433	     -4.50072479	    -11.84868521	     -6.12777161	     -7.46904784	     -5.36344463	     -6.64112089	     -9.19844808	     36.74227042	    109.44720404	     13.16381436	    -16.13210407	      6.44533505	     61.87013894	    110.26337804
      0.01000000	     -2.74675728	      2.14778177	      1.12953579	     -0.10679592	      1.00135758	     -0.36232571	     27.12982949	     -2.16024454	     -4.42605679	      8.31276219	      0.14508507	     -4.64980958	     -6.46829681	     -4.59643685	    -15.42125596	      2.66318768	     -5.44462282	     10.19554170	      0.17794577	     12.85224240	     10.21388766	     -4.59643685	    -11.88065599	     -5.18689598	     -7.44336172	     -5.17007379	     -6.63714150	     -9.65443922	     36.34941820	    109.27296584	     12.16279268	    -15.82206880	      6.43319001	     61.10680221	    110.25810082
      0.02000000	     -2.43463597	      1.82076779	      1.35473310	     -0.09463495	      1.00159021	     -0.36176788	     26.95423596	     -1.96317063	     -4.42043159	      9.82291829	      0.17144227	     -5.20831840	     -6.94715882	     -4.60958626	    -15.73772111	      2.04256334	     -5.20235103	     11.45632324	      0.19995056	     12.21075153	     10.16503732	     -4.60958626	    -12.23256147	     -4.17126476	     -7.39860437	     -4.98675914	     -6.76239028	     -9.84079341	     36.16010546	    109.22842765	     11.17160238	    -15.53316415	      6.55739982	     60.42315622	    110.21426622
      0.03000000	     -2.44916559	      1.45528941	      1.71123525	     -0.08247759	      1.00159868	     -0.36119639	     27.17764157	     -1.75507636	     -4.73139777	     11.44593111	      0.19976918	     -6.32065572	     -8.85400104	     -4.65412001	    -15.25949653	      1.23447614	     -5.57766764	     13.48728743	      0.23539757	     11.40947909	      9.95830309	     -4.65412001	    -12.09513523	     -3.15585622	     -7.41275748	     -4.83567562	     -6.75471292	    -10.43847782	     35.70667266	    109.10507883	     10.18136116	    -15.08033165	      6.43974884	     59.30105089	    110.11887817
      0.04000000	     -2.28575143	      1.01427323	      1.89844416	     -0.07012075	      1.00213136	     -0.36018759	     27.12163543	     -1.31490553	     -4.47772081	     12.97256195	      0.22641392	     -7.51548111	    -11.13983435	     -4.77759315	    -15.01520543	      0.35932423	     -5.92110416	     15.41713214	      0.26907972	     10.65536823	     10.25429753	     -4.77759315	    -12.19367841	     -2.09405592	     -7.20869704	     -4.76642179	     -6.70647865	    -11.24767673	     35.58735533	    108.98373978	      9.21206454	    -14.66721613	      6.53196127	     58.20049265	    110.06581710
      0.05000000	     -1.99132497	      0.56441513	      2.11686392	     -0.05760944	      1.00323932	     -0.35935446	     26.89178398	     -0.92894281	     -4.71845593	     14.58309906	      0.25452309	     -7.29268898	    -11.94779603	     -4.80536144	    -14.77845178	     -0.52172914	     -6.08617891	     17.49269274	      0.30530508	      9.28132587	      9.97493047	     -4.80536144	    -12.44130066	     -1.00701123	     -7.11981581	     -4.62031780	     -6.78574008	    -11.57783420	     35.40201006	    108.93669072	      8.17416288	    -14.22651440	      6.46358652	     57.02233731	    109.95618206
